<svg width="50" height="54" viewBox="0 0 50 54" fill="none" xmlns="http://www.w3.org/2000/svg">
<path d="M25 53.0693C38.8071 53.0693 50 41.2128 50 26.5871C50 11.9614 38.8071 0.10498 25 0.10498C11.1929 0.10498 0 11.9614 0 26.5871C0 41.2128 11.1929 53.0693 25 53.0693Z" fill="#E14229"/>
<path d="M26.9531 39.7453V30.4973H29.8682L30.4248 26.6698H26.958V24.1871C26.958 23.1423 27.4414 22.1182 28.9941 22.1182H30.5664V18.8596C30.5664 18.8596 29.1357 18.601 27.7686 18.601C24.9121 18.601 23.0469 20.432 23.0469 23.7526V26.6698H19.873V30.4973H23.0469V39.7505C17.0703 38.7574 12.5 33.28 12.5 26.6698C12.5 19.3562 18.0957 13.4287 25 13.4287C31.9043 13.4287 37.5 19.3562 37.5 26.6698C37.5 33.2748 32.9297 38.7523 26.9531 39.7453Z" fill="white"/>
</svg>
