<svg width="50" height="54" viewBox="0 0 50 54" fill="none" xmlns="http://www.w3.org/2000/svg">
<path d="M25 53.0693C38.8071 53.0693 50 41.2128 50 26.5871C50 11.9614 38.8071 0.10498 25 0.10498C11.1929 0.10498 0 11.9614 0 26.5871C0 41.2128 11.1929 53.0693 25 53.0693Z" fill="#E14229"/>
<path d="M25 13.5607C29.0051 13.5607 29.4796 13.5769 31.0613 13.6533C32.5238 13.724 33.318 13.9829 33.8466 14.2004C34.5467 14.4887 35.0464 14.8329 35.5713 15.3889C36.0963 15.9451 36.4212 16.4743 36.6934 17.2159C36.8987 17.7759 37.1431 18.6172 37.2099 20.1663C37.282 21.8418 37.2972 22.3443 37.2972 26.5869C37.2972 30.8296 37.282 31.3321 37.2099 33.0076C37.1431 34.5568 36.8987 35.398 36.6934 35.958C36.4212 36.6996 36.0963 37.229 35.5714 37.785C35.0464 38.341 34.5467 38.6853 33.8466 38.9735C33.318 39.1912 32.5238 39.4499 31.0613 39.5206C29.4799 39.597 29.0055 39.6133 25 39.6133C20.9945 39.6133 20.5202 39.597 18.9387 39.5206C17.4762 39.4499 16.682 39.1912 16.1534 38.9735C15.4533 38.6853 14.9536 38.341 14.4288 37.785C13.9039 37.229 13.5787 36.6996 13.3066 35.958C13.1012 35.398 12.8569 34.5568 12.7901 33.0076C12.718 31.3321 12.7027 30.8296 12.7027 26.5869C12.7027 22.3443 12.718 21.8418 12.7901 20.1663C12.8569 18.6172 13.1012 17.7759 13.3066 17.2159C13.5787 16.4743 13.9038 15.9451 14.4288 15.3891C14.9536 14.8329 15.4533 14.4887 16.1534 14.2004C16.682 13.9829 17.4762 13.724 18.9387 13.6533C20.5204 13.5769 20.9949 13.5607 25 13.5607ZM25 10.6978C20.9262 10.6978 20.4154 10.716 18.8155 10.7934C17.219 10.8705 16.1285 11.1391 15.1744 11.5319C14.188 11.9379 13.3515 12.4812 12.5176 13.3646C11.6836 14.2479 11.1708 15.134 10.7875 16.1789C10.4166 17.1896 10.1631 18.3446 10.0902 20.0359C10.0172 21.7306 10 22.2718 10 26.5869C10 30.9023 10.0172 31.4433 10.0902 33.1381C10.1631 34.8293 10.4166 35.9844 10.7875 36.995C11.1708 38.0399 11.6836 38.926 12.5176 39.8094C13.3515 40.6927 14.188 41.236 15.1744 41.642C16.1285 42.0349 17.219 42.3034 18.8155 42.3806C20.4154 42.4579 20.9262 42.4762 25 42.4762C29.0737 42.4762 29.5846 42.4579 31.1845 42.3806C32.781 42.3034 33.8715 42.0349 34.8256 41.642C35.812 41.236 36.6485 40.6927 37.4824 39.8094C38.3163 38.926 38.8292 38.0399 39.2125 36.995C39.5834 35.9844 39.8369 34.8293 39.9097 33.1381C39.9827 31.4433 40 30.9023 40 26.5869C40 22.2718 39.9827 21.7306 39.9097 20.0359C39.8369 18.3446 39.5834 17.1896 39.2125 16.1789C38.8292 15.134 38.3163 14.2479 37.4824 13.3646C36.6485 12.4812 35.812 11.9379 34.8256 11.5319C33.8715 11.1391 32.781 10.8705 31.1845 10.7934C29.5846 10.716 29.0737 10.6978 25 10.6978Z" fill="white"/>
<path d="M25.0073 18.4351C20.7532 18.4351 17.3047 22.088 17.3047 26.5943C17.3047 31.1007 20.7532 34.7536 25.0073 34.7536C29.2614 34.7536 32.7101 31.1007 32.7101 26.5943C32.7101 22.088 29.2614 18.4351 25.0073 18.4351ZM25.0073 31.8908C22.2459 31.8908 20.0073 29.5194 20.0073 26.5943C20.0073 23.6693 22.2459 21.2979 25.0073 21.2979C27.7688 21.2979 30.0073 23.6693 30.0073 26.5943C30.0073 29.5194 27.7688 31.8908 25.0073 31.8908Z" fill="white"/>
<path d="M34.8134 18.108C34.8134 19.1609 34.0075 20.0147 33.0134 20.0147C32.0193 20.0147 31.2134 19.1609 31.2134 18.108C31.2134 17.055 32.0193 16.2012 33.0134 16.2012C34.0075 16.2012 34.8134 17.055 34.8134 18.108Z" fill="white"/>
</svg>
