<svg width="50" height="54" viewBox="0 0 50 54" fill="none" xmlns="http://www.w3.org/2000/svg">
<path d="M25 53.96C38.8071 53.96 50 41.8806 50 26.98C50 12.0794 38.8071 0 25 0C11.1929 0 0 12.0794 0 26.98C0 41.8806 11.1929 53.96 25 53.96Z" fill="#E14229"/>
<path d="M25.6554 11.0221C27.2888 10.9946 28.9102 11.0089 30.5306 10.9946C30.5845 13.2287 31.4067 15.2395 32.7147 16.7289L32.7128 16.7267C34.1206 18.1248 35.9526 19.0312 37.9721 19.1852L38 19.1874V24.7271C36.0922 24.6743 34.2982 24.1892 32.6808 23.3554L32.7626 23.3928C31.9804 22.9781 31.3189 22.5524 30.6902 22.0772L30.7421 22.1146C30.7302 26.1285 30.7541 30.1424 30.7172 34.142C30.6144 36.1803 29.9998 38.0393 29.014 39.5914L29.0339 39.5573C27.3856 42.1599 24.7155 43.8682 21.6793 43.9694H21.6653C21.5426 43.976 21.3979 43.9793 21.2522 43.9793C19.5261 43.9793 17.9126 43.4491 16.5377 42.5284L16.5776 42.5537C14.0752 40.8938 12.349 38.0536 12.0297 34.7503L12.0257 34.7052C12.0008 34.0177 11.9888 33.3302 12.0138 32.657C12.5027 27.4001 16.4978 23.3334 21.354 23.3334C21.8998 23.3334 22.4346 23.3851 22.9544 23.483L22.8986 23.4742C22.9235 25.5081 22.8487 27.5431 22.8487 29.577C22.4266 29.4087 21.9397 29.3108 21.4318 29.3108C19.568 29.3108 17.9825 30.6242 17.3958 32.4579L17.3868 32.4909C17.2541 32.9606 17.1773 33.5007 17.1773 34.0595C17.1773 34.2861 17.1903 34.5105 17.2142 34.7305L17.2122 34.7041C17.5435 36.9547 19.2936 38.6531 21.4039 38.6531C21.4648 38.6531 21.5246 38.652 21.5845 38.6487H21.5755C23.0353 38.6003 24.3024 37.7346 25.0189 36.4553L25.0288 36.4355C25.2952 36.0263 25.4778 35.5313 25.5387 34.9934L25.5397 34.978C25.6644 32.5173 25.6145 30.0709 25.6265 27.6102C25.6385 22.0706 25.6145 16.5441 25.6514 11.0188L25.6554 11.0221Z" fill="white"/>
</svg>
